<svg width="25" height="25" viewBox="0 0 25 25" fill="none" xmlns="http://www.w3.org/2000/svg">
<path d="M7.3231 0.0874223C5.99308 0.150173 5.08482 0.362423 4.29081 0.674424C3.46906 0.994675 2.77255 1.42443 2.07954 2.11993C1.38653 2.81543 0.95978 3.51243 0.641777 4.33544C0.334024 5.13119 0.125522 6.04019 0.066771 7.37095C0.00802036 8.7017 -0.00497978 9.12945 0.00152028 12.524C0.00802035 15.9185 0.0230205 16.344 0.0875212 17.6775C0.151022 19.0072 0.362524 19.9152 0.674527 20.7095C0.99528 21.5312 1.42453 22.2275 2.12029 22.9208C2.81605 23.614 3.51256 24.0398 4.33756 24.3583C5.13257 24.6655 6.04183 24.875 7.37235 24.9333C8.70286 24.9915 9.13111 25.005 12.5246 24.9985C15.9182 24.992 16.3454 24.977 17.6787 24.9138C19.012 24.8505 19.9152 24.6375 20.7097 24.327C21.5315 24.0055 22.2282 23.577 22.921 22.881C23.6138 22.185 24.0403 21.4875 24.358 20.664C24.666 19.869 24.8753 18.9597 24.933 17.6302C24.9913 16.296 25.005 15.87 24.9985 12.476C24.992 9.08195 24.9768 8.65645 24.9135 7.32345C24.8503 5.99044 24.6385 5.08519 24.3268 4.29044C24.0055 3.46868 23.5768 2.77293 22.8813 2.07918C22.1857 1.38543 21.4877 0.959175 20.6645 0.642174C19.869 0.334423 18.9602 0.124672 17.6297 0.0671722C16.2992 0.00967205 15.8709 -0.005078 12.4761 0.00142202C9.08136 0.00792204 8.65636 0.0224221 7.3231 0.0874223ZM7.4691 22.6845C6.25033 22.6315 5.58858 22.429 5.14757 22.2595C4.56357 22.0345 4.14756 21.7625 3.70806 21.3272C3.26855 20.892 2.99855 20.4745 2.77055 19.8917C2.5993 19.4507 2.39304 18.7897 2.33604 17.571C2.27404 16.2537 2.26104 15.8582 2.25379 12.521C2.24654 9.1837 2.25929 8.7887 2.31704 7.47095C2.36904 6.25319 2.5728 5.59069 2.74205 5.14994C2.96705 4.56519 3.23805 4.14994 3.67431 3.71068C4.11056 3.27143 4.52682 3.00093 5.11007 2.77293C5.55058 2.60093 6.21158 2.39643 7.42985 2.33843C8.74811 2.27593 9.14311 2.26343 12.4799 2.25618C15.8167 2.24893 16.2127 2.26143 17.5314 2.31943C18.7492 2.37243 19.412 2.57418 19.8522 2.74443C20.4365 2.96943 20.8522 3.23968 21.2915 3.67669C21.7307 4.11369 22.0015 4.52844 22.2295 5.11294C22.4017 5.55219 22.6062 6.21294 22.6637 7.43195C22.7265 8.7502 22.7408 9.14545 22.7468 12.482C22.7528 15.8185 22.741 16.2147 22.6833 17.532C22.63 18.7507 22.428 19.4127 22.2582 19.8542C22.0332 20.438 21.762 20.8542 21.3255 21.2932C20.889 21.7322 20.4732 22.0027 19.8897 22.2307C19.4497 22.4025 18.788 22.6075 17.5707 22.6655C16.2524 22.7275 15.8574 22.7405 12.5194 22.7477C9.18136 22.755 8.78761 22.7415 7.46935 22.6845M17.6594 5.81919C17.6599 6.11589 17.7484 6.40577 17.9137 6.65218C18.0789 6.89859 18.3135 7.09046 18.5879 7.20352C18.8622 7.31658 19.1638 7.34575 19.4547 7.28735C19.7456 7.22894 20.0127 7.08559 20.2221 6.87541C20.4315 6.66523 20.5739 6.39767 20.6312 6.10657C20.6885 5.81547 20.6583 5.5139 20.5442 5.24001C20.4301 4.96612 20.2374 4.7322 19.9904 4.56785C19.7434 4.4035 19.4532 4.31609 19.1565 4.31669C18.7587 4.31748 18.3776 4.47621 18.0968 4.75797C17.8161 5.03973 17.6588 5.42145 17.6594 5.81919ZM6.08183 12.5125C6.08883 16.0575 8.96786 18.9247 12.5121 18.918C16.0564 18.9112 18.9257 16.0325 18.919 12.4875C18.9122 8.94245 16.0324 6.07444 12.4876 6.08144C8.94286 6.08844 6.07508 8.96795 6.08183 12.5125ZM8.33335 12.508C8.33172 11.6839 8.57451 10.8778 9.03101 10.1917C9.4875 9.50553 10.1372 8.97018 10.898 8.6533C11.6587 8.33642 12.4964 8.25225 13.3049 8.41142C14.1135 8.5706 14.8568 8.96597 15.4407 9.54755C16.0246 10.1291 16.4229 10.8708 16.5852 11.6787C16.7476 12.4867 16.6668 13.3246 16.3529 14.0866C16.039 14.8486 15.5063 15.5005 14.8219 15.9597C14.1376 16.4189 13.3325 16.6648 12.5084 16.6665C11.9612 16.6676 11.4191 16.561 10.9131 16.3526C10.4071 16.1442 9.94717 15.8382 9.55947 15.452C9.17176 15.0659 8.86393 14.6071 8.65355 14.102C8.44318 13.5968 8.33437 13.0552 8.33335 12.508Z" fill="white"/>
</svg>
