<svg width="26" height="357" viewBox="0 0 26 357" fill="none" xmlns="http://www.w3.org/2000/svg">
<path d="M10.5513 340.016L10.5513 349.026L9.87132 349.264L9.87132 339.676L10.5513 340.016ZM0.92932 356.846C0.92932 356.936 0.86132 356.982 0.72532 356.982C0.58932 356.982 0.521319 356.936 0.521319 356.846C0.521319 356.415 0.543987 355.746 0.58932 354.84C0.634654 353.933 0.657319 353.276 0.657319 352.868C0.657319 352.369 0.634654 351.734 0.58932 350.964C0.543987 350.238 0.52132 349.683 0.52132 349.298C0.52132 349.207 0.58932 349.162 0.72532 349.162C0.86132 349.162 0.929321 349.207 0.929321 349.298C0.929321 350.159 1.00865 350.771 1.16732 351.134C1.32599 351.519 1.60932 351.712 2.01732 351.712C2.35732 351.712 2.83332 351.576 3.44532 351.304L19.3913 343.756L20.4453 344.606L4.83932 338.01C4.06865 337.692 3.43399 337.534 2.93532 337.534C1.59799 337.534 0.929321 338.644 0.929321 340.866C0.929321 340.979 0.86132 341.036 0.72532 341.036C0.58932 341.036 0.52132 340.979 0.52132 340.866C0.52132 340.458 0.543987 339.868 0.589321 339.098C0.634654 338.236 0.65732 337.488 0.65732 336.854C0.65732 336.264 0.634654 335.584 0.589321 334.814C0.543988 334.134 0.52132 333.567 0.52132 333.114C0.52132 333 0.589321 332.944 0.725321 332.944C0.861321 332.944 0.929321 333 0.929321 333.114C0.929321 333.748 1.04265 334.281 1.26932 334.712C1.51865 335.165 1.93799 335.584 2.52732 335.97C3.13932 336.378 4.01199 336.82 5.14532 337.296L22.0773 344.47C22.1453 344.515 22.1793 344.594 22.1793 344.708C22.1793 344.821 22.1453 344.889 22.0773 344.912L5.17932 352.936C3.50199 353.706 2.36865 354.364 1.77932 354.908C1.21265 355.452 0.92932 356.098 0.92932 356.846Z" fill="#787676" fill-opacity="0.28"/>
<path d="M0.521289 326.999C0.521289 326.432 1.48462 325.344 3.41129 323.735C5.36062 322.148 8.03529 320.233 11.4353 317.989L12.0133 319.893C9.17996 321.865 6.96996 323.508 5.38329 324.823C3.81929 326.16 2.68596 327.339 1.98329 328.359C1.28062 329.379 0.92929 330.376 0.92929 331.351C0.92929 331.419 0.861289 331.453 0.725289 331.453C0.589289 331.453 0.521289 331.419 0.521289 331.351L0.521289 326.999ZM21.8733 318.431C21.8733 320.221 21.4653 321.604 20.6493 322.579C19.8333 323.553 18.7453 324.041 17.3853 324.041C16.184 324.041 15.0846 323.689 14.0873 322.987C13.1126 322.284 12.3306 321.332 11.7413 320.131C11.1746 318.952 10.8913 317.683 10.8913 316.323C10.8913 316.187 10.9253 315.677 10.9933 314.793L3.27529 314.793C2.57262 314.793 2.06262 314.861 1.74529 314.997C1.42796 315.133 1.21262 315.393 1.09929 315.779C0.985955 316.187 0.92929 316.821 0.92929 317.683C0.92929 317.751 0.86129 317.785 0.72529 317.785C0.58929 317.785 0.521289 317.751 0.521289 317.683C0.52129 316.98 0.532623 316.425 0.55529 316.017L0.58929 313.671L0.55529 311.359C0.532623 310.951 0.52129 310.373 0.52129 309.625C0.52129 309.579 0.58929 309.557 0.72529 309.557C0.86129 309.557 0.929291 309.579 0.929291 309.625C0.929291 310.486 0.985956 311.121 1.09929 311.529C1.23529 311.937 1.46196 312.22 1.77929 312.379C2.09662 312.537 2.59529 312.617 3.27529 312.617L19.0173 312.617C19.6973 312.617 20.196 312.537 20.5133 312.379C20.8306 312.243 21.046 311.971 21.1593 311.563C21.2953 311.177 21.3633 310.554 21.3633 309.693C21.3633 309.625 21.4313 309.591 21.5673 309.591C21.7033 309.591 21.7713 309.625 21.7713 309.693L21.7373 311.359C21.692 312.311 21.6693 313.081 21.6693 313.671C21.6693 314.169 21.6806 314.634 21.7033 315.065C21.726 315.495 21.7486 315.858 21.7713 316.153C21.8393 317.014 21.8733 317.773 21.8733 318.431ZM16.3993 321.729C18.1673 321.729 19.4366 321.332 20.2073 320.539C20.978 319.768 21.3633 318.635 21.3633 317.139C21.3633 316.255 21.2046 315.643 20.8873 315.303C20.57 314.963 19.924 314.793 18.9493 314.793L11.8093 314.793C11.7186 315.337 11.6733 316.005 11.6733 316.799C11.6733 318.567 12.0586 319.825 12.8293 320.573C13.6 321.343 14.79 321.729 16.3993 321.729Z" fill="#787676" fill-opacity="0.28"/>
<path d="M18.0314 301.831C20.2527 301.831 21.3634 300.845 21.3634 298.873C21.3634 298.805 21.4314 298.771 21.5674 298.771C21.7034 298.771 21.7714 298.805 21.7714 298.873L21.7374 300.335C21.692 301.151 21.6694 301.797 21.6694 302.273C21.6694 302.658 21.692 303.213 21.7374 303.939L21.7714 305.367C21.7714 305.412 21.7034 305.435 21.5674 305.435C21.4314 305.435 21.3634 305.412 21.3634 305.367C21.3634 303.553 20.2527 302.647 18.0314 302.647L8.37536 302.647C5.76869 302.647 3.72869 301.921 2.25536 300.471C0.804694 299.02 0.0793623 297.071 0.0793624 294.623C0.0793624 292.945 0.408029 291.472 1.06536 290.203C1.7227 288.956 2.65203 287.981 3.85336 287.279C5.07736 286.599 6.50536 286.259 8.13736 286.259L19.0174 286.259C19.6974 286.259 20.196 286.191 20.5134 286.055C20.8307 285.919 21.046 285.647 21.1594 285.239C21.2954 284.853 21.3634 284.23 21.3634 283.369C21.3634 283.323 21.4314 283.301 21.5674 283.301C21.7034 283.301 21.7714 283.323 21.7714 283.369L21.7374 285.035C21.692 285.987 21.6694 286.757 21.6694 287.347C21.6694 287.959 21.692 288.763 21.7374 289.761L21.7714 291.325C21.7714 291.393 21.7034 291.427 21.5674 291.427C21.4314 291.427 21.3634 291.393 21.3634 291.325C21.3634 290.486 21.2954 289.863 21.1594 289.455C21.0234 289.069 20.7854 288.809 20.4454 288.673C20.128 288.537 19.6294 288.469 18.9494 288.469L9.32736 288.469C6.6527 288.469 4.6127 289.069 3.20736 290.271C1.80203 291.472 1.09936 293.172 1.09936 295.371C1.09936 297.411 1.73403 298.997 3.00336 300.131C4.29536 301.264 6.07469 301.831 8.34136 301.831L18.0314 301.831Z" fill="#787676" fill-opacity="0.28"/>
<path d="M18.0314 276.05C20.2527 276.05 21.3634 275.064 21.3634 273.092C21.3634 273.024 21.4314 272.99 21.5674 272.99C21.7034 272.99 21.7714 273.024 21.7714 273.092L21.7374 274.554C21.692 275.37 21.6694 276.016 21.6694 276.492C21.6694 276.878 21.692 277.433 21.7374 278.158L21.7714 279.586C21.7714 279.632 21.7034 279.654 21.5674 279.654C21.4314 279.654 21.3634 279.632 21.3634 279.586C21.3634 277.773 20.2527 276.866 18.0314 276.866L8.37536 276.866C5.76869 276.866 3.72869 276.141 2.25536 274.69C0.804694 273.24 0.0793623 271.29 0.0793624 268.842C0.0793624 267.165 0.408029 265.692 1.06536 264.422C1.7227 263.176 2.65203 262.201 3.85336 261.498C5.07736 260.818 6.50536 260.478 8.13736 260.478L19.0174 260.478C19.6974 260.478 20.196 260.41 20.5134 260.274C20.8307 260.138 21.046 259.866 21.1594 259.458C21.2954 259.073 21.3634 258.45 21.3634 257.588C21.3634 257.543 21.4314 257.52 21.5674 257.52C21.7034 257.52 21.7714 257.543 21.7714 257.588L21.7374 259.254C21.692 260.206 21.6694 260.977 21.6694 261.566C21.6694 262.178 21.692 262.983 21.7374 263.98L21.7714 265.544C21.7714 265.612 21.7034 265.646 21.5674 265.646C21.4314 265.646 21.3634 265.612 21.3634 265.544C21.3634 264.706 21.2954 264.082 21.1594 263.674C21.0234 263.289 20.7854 263.028 20.4454 262.892C20.128 262.756 19.6294 262.688 18.9494 262.688L9.32736 262.688C6.6527 262.688 4.6127 263.289 3.20736 264.49C1.80203 265.692 1.09936 267.392 1.09936 269.59C1.09936 271.63 1.73403 273.217 3.00336 274.35C4.29536 275.484 6.07469 276.05 8.34136 276.05L18.0314 276.05Z" fill="#787676" fill-opacity="0.28"/>
<path d="M20.9894 233.939L20.9214 234.721L4.22736 234.721C3.04869 234.721 2.1987 234.925 1.67736 235.333C1.1787 235.764 0.929363 236.444 0.929363 237.373C0.929363 237.441 0.861363 237.475 0.725363 237.475C0.589362 237.475 0.521362 237.441 0.521362 237.373C0.521362 236.806 0.532696 236.376 0.555362 236.081L0.589363 234.381L0.555363 232.647C0.532696 232.33 0.521362 231.865 0.521362 231.253C0.521362 231.208 0.589363 231.185 0.725363 231.185C0.861363 231.185 0.929363 231.208 0.929363 231.253C0.929363 232.228 1.1787 232.919 1.67736 233.327C2.1987 233.735 3.04869 233.939 4.22736 233.939L20.9894 233.939ZM0.11336 251.075C0.0680271 251.075 0.0340279 251.018 0.0113612 250.905C-0.0113055 250.792 2.82767e-05 250.712 0.0453616 250.667L18.9834 235.027C19.8674 234.302 20.4794 233.633 20.8194 233.021C21.182 232.432 21.3634 231.842 21.3634 231.253C21.3634 231.185 21.4314 231.151 21.5674 231.151C21.7034 231.151 21.7714 231.185 21.7714 231.253L21.7374 232.511C21.7147 232.783 21.7034 233.157 21.7034 233.633C21.7034 234.132 21.7147 234.54 21.7374 234.857C21.76 235.174 21.7714 235.424 21.7714 235.605C21.7714 235.764 21.726 235.888 21.6354 235.979C21.5674 236.092 21.4087 236.217 21.1594 236.353C20.7514 236.625 20.366 236.908 20.0034 237.203L3.30936 250.803L0.11336 251.075ZM0.11336 251.075L1.16736 250.293L18.0314 250.293C19.21 250.293 20.06 250.089 20.5814 249.681C21.1027 249.296 21.3634 248.638 21.3634 247.709C21.3634 247.664 21.4314 247.641 21.5674 247.641C21.7034 247.641 21.7714 247.664 21.7714 247.709L21.7374 249.035C21.692 249.715 21.6694 250.27 21.6694 250.701C21.6694 251.109 21.692 251.676 21.7374 252.401L21.7714 253.795C21.7714 253.863 21.7034 253.897 21.5674 253.897C21.4314 253.897 21.3634 253.863 21.3634 253.795C21.3634 252.843 21.1027 252.152 20.5814 251.721C20.06 251.29 19.21 251.075 18.0314 251.075L0.11336 251.075Z" fill="#787676" fill-opacity="0.28"/>
<path d="M0.521322 198.53C0.521322 198.462 0.589323 198.428 0.725323 198.428C0.861323 198.428 0.929323 198.462 0.929323 198.53C0.929323 199.21 0.985988 199.709 1.09932 200.026C1.23532 200.344 1.46199 200.559 1.77932 200.672C2.09665 200.808 2.59532 200.876 3.27532 200.876L10.9253 200.876C11.5147 200.876 11.9227 200.82 12.1493 200.706C12.3987 200.593 12.5573 200.378 12.6253 200.06C12.716 199.743 12.7613 199.188 12.7613 198.394C12.7613 198.326 12.8293 198.292 12.9653 198.292C13.124 198.292 13.2033 198.326 13.2033 198.394C13.2033 199.324 13.3053 199.947 13.5093 200.264C13.736 200.604 14.144 200.786 14.7333 200.808C18.4053 200.922 21.0687 201.59 22.7233 202.814C24.378 204.061 25.2053 205.886 25.2053 208.288C25.2053 209.444 25.024 210.385 24.6613 211.11C24.3213 211.858 23.902 212.232 23.4033 212.232C23.0633 212.232 22.7913 212.108 22.5873 211.858C22.406 211.632 22.3153 211.36 22.3153 211.042C22.3153 210.77 22.3833 210.532 22.5193 210.328C22.6553 210.147 22.882 209.943 23.1993 209.716C23.6753 209.354 24.0267 208.968 24.2533 208.56C24.5027 208.175 24.6273 207.688 24.6273 207.098C24.6273 205.784 23.868 204.741 22.3493 203.97C20.8307 203.2 18.53 202.814 15.4473 202.814L3.27532 202.814C2.57266 202.814 2.06266 202.894 1.74532 203.052C1.42799 203.211 1.21265 203.517 1.09932 203.97C0.985988 204.424 0.929323 205.149 0.929323 206.146C0.929323 206.214 0.861322 206.248 0.725322 206.248C0.589322 206.248 0.521322 206.214 0.521322 206.146L0.555322 203.97C0.577989 203.494 0.589323 202.769 0.589323 201.794L0.555323 199.89C0.532656 199.573 0.521322 199.12 0.521322 198.53ZM11.9793 207.064C12.342 205.614 12.5233 203.914 12.5233 201.964L13.2713 201.964C13.2713 203.347 13.3847 205.081 13.6113 207.166C13.6113 207.234 13.532 207.291 13.3733 207.336C13.2147 207.382 13.022 207.404 12.7953 207.404C12.614 207.404 12.4213 207.37 12.2173 207.302C12.036 207.234 11.9567 207.155 11.9793 207.064Z" fill="#787676" fill-opacity="0.28"/>
<path d="M0.113384 181.815C0.113384 179.707 0.600719 177.826 1.57539 176.171C2.57272 174.539 3.91005 173.27 5.58738 172.363C7.28738 171.479 9.13472 171.037 11.1294 171.037C13.4641 171.037 15.4587 171.626 17.1134 172.805C18.7907 173.984 20.0487 175.491 20.8874 177.327C21.7261 179.186 22.1454 181.078 22.1454 183.005C22.1454 185.158 21.6354 187.051 20.6154 188.683C19.6181 190.315 18.2921 191.562 16.6374 192.423C14.9827 193.307 13.2261 193.749 11.3674 193.749C9.30472 193.749 7.41205 193.205 5.68938 192.117C3.96672 191.029 2.60672 189.567 1.60938 187.731C0.612049 185.918 0.113384 183.946 0.113384 181.815ZM0.827384 183.005C0.827384 184.546 1.20138 185.929 1.94938 187.153C2.69738 188.4 3.78539 189.374 5.21339 190.077C6.66405 190.802 8.39805 191.165 10.4154 191.165C12.5461 191.165 14.4387 190.768 16.0934 189.975C17.7481 189.182 19.0401 188.06 19.9694 186.609C20.8987 185.181 21.3634 183.504 21.3634 181.577C21.3634 179.084 20.5587 177.134 18.9494 175.729C17.3401 174.324 15.1301 173.621 12.3194 173.621C10.1887 173.621 8.23939 174.018 6.47138 174.811C4.72605 175.604 3.34338 176.715 2.32338 178.143C1.32605 179.571 0.827385 181.192 0.827384 183.005Z" fill="#787676" fill-opacity="0.28"/>
<path d="M0.11328 152.226C0.11328 151.274 0.328615 150.492 0.759282 149.88C1.18995 149.268 1.90395 148.962 2.90128 148.962L10.8913 148.962C11.4806 148.962 11.8999 148.917 12.1493 148.826C12.3986 148.758 12.5573 148.611 12.6253 148.384C12.7159 148.157 12.7613 147.772 12.7613 147.228C12.7613 147.137 12.8293 147.092 12.9653 147.092C13.1239 147.092 13.2033 147.137 13.2033 147.228C13.2259 148.135 13.4639 148.871 13.9173 149.438C14.3933 150.005 15.0166 150.333 15.7873 150.424C15.8553 150.424 15.8893 150.515 15.8893 150.696C15.8893 150.855 15.8553 150.934 15.7873 150.934L4.05728 150.934C2.22128 150.934 1.30328 151.829 1.30328 153.62C1.30328 154.663 1.62061 155.569 2.25528 156.34L2.28928 156.408C2.28928 156.499 2.23261 156.567 2.11928 156.612C2.02861 156.657 1.96061 156.646 1.91528 156.578C1.25795 155.739 0.793281 154.98 0.521281 154.3C0.249281 153.643 0.11328 152.951 0.11328 152.226ZM11.9793 155.524C12.3419 154.073 12.5233 152.351 12.5233 150.356L13.2713 150.356C13.2713 151.784 13.3846 153.552 13.6113 155.66C13.6113 155.705 13.5206 155.751 13.3393 155.796C13.1806 155.864 12.9993 155.898 12.7953 155.898C12.6139 155.898 12.4213 155.853 12.2173 155.762C12.0359 155.694 11.9566 155.615 11.9793 155.524Z" fill="#787676" fill-opacity="0.28"/>
<path d="M0.52128 136.906C0.52128 136.838 0.58928 136.804 0.72528 136.804C0.86128 136.804 0.929281 136.838 0.929281 136.906C0.929281 137.518 0.985946 137.971 1.09928 138.266C1.23528 138.56 1.46195 138.753 1.77928 138.844C2.09661 138.957 2.59528 139.014 3.27528 139.014L8.78328 139.014C10.1433 139.014 11.1293 138.753 11.7413 138.232C12.3759 137.733 12.6933 136.951 12.6933 135.886C12.6933 135.047 12.4326 134.197 11.9113 133.336C11.3899 132.497 10.6759 131.772 9.76928 131.16L10.1773 131.024C11.5146 132.021 12.5006 133.007 13.1353 133.982C13.7699 134.956 14.0873 135.965 14.0873 137.008C14.0873 138.254 13.7246 139.218 12.9993 139.898C12.2966 140.6 11.2766 140.952 9.93928 140.952L3.27528 140.952C2.59528 140.952 2.09661 140.997 1.77928 141.088C1.46195 141.201 1.23528 141.405 1.09928 141.7C0.985945 141.994 0.929281 142.448 0.929281 143.06C0.929281 143.128 0.86128 143.162 0.72528 143.162C0.58928 143.162 0.52128 143.128 0.52128 143.06C0.52128 142.538 0.532613 142.13 0.55528 141.836L0.58928 140L0.55528 138.13C0.532614 137.835 0.52128 137.427 0.52128 136.906ZM0.52128 127.76C0.52128 127.692 0.589281 127.658 0.725281 127.658C0.861281 127.658 0.929281 127.692 0.929281 127.76C0.929281 128.372 0.985946 128.825 1.09928 129.12C1.23528 129.414 1.46195 129.607 1.77928 129.698C2.09661 129.811 2.59528 129.868 3.27528 129.868L10.0073 129.868C10.7779 129.868 11.3333 129.777 11.6733 129.596C12.0133 129.414 12.1833 129.108 12.1833 128.678C12.1833 128.315 12.0133 127.703 11.6733 126.842L11.6733 126.774C11.6733 126.683 11.7186 126.615 11.8093 126.57C11.9226 126.547 12.0019 126.581 12.0473 126.672L13.9173 130.616C13.9399 130.661 13.9513 130.729 13.9513 130.82C13.9513 131.024 13.6906 131.239 13.1693 131.466C12.6479 131.692 11.9793 131.806 11.1633 131.806L3.27528 131.806C2.59528 131.806 2.09661 131.851 1.77928 131.942C1.46195 132.055 1.23528 132.259 1.09928 132.554C0.985946 132.848 0.929281 133.302 0.929281 133.914C0.929281 133.982 0.86128 134.016 0.72528 134.016C0.58928 134.016 0.52128 133.982 0.52128 133.914C0.52128 133.392 0.532614 132.984 0.55528 132.69L0.589281 130.854L0.555281 128.984C0.532614 128.689 0.52128 128.281 0.52128 127.76Z" fill="#787676" fill-opacity="0.28"/>
<path d="M0.113292 117.757C0.113292 116.442 0.419294 115.32 1.03129 114.391C1.64329 113.461 2.44796 112.747 3.44529 112.249C4.44263 111.773 5.50796 111.535 6.64129 111.535C7.97863 111.535 9.20263 111.852 10.3133 112.487C11.4466 113.121 12.3306 113.983 12.9653 115.071C13.6226 116.181 13.9513 117.394 13.9513 118.709C13.9513 119.978 13.6113 120.953 12.9313 121.633C12.2513 122.313 11.2993 122.653 10.0753 122.653C9.75796 122.653 9.53129 122.619 9.39529 122.551C9.25929 122.505 9.19129 122.403 9.19129 122.245L9.19129 120.341L9.80329 120.375C10.9366 120.375 11.798 120.125 12.3873 119.627C12.9766 119.128 13.2713 118.448 13.2713 117.587C13.2713 116.385 12.7953 115.445 11.8433 114.765C10.8913 114.107 9.58796 113.779 7.93329 113.779C5.96129 113.779 4.36329 114.243 3.13929 115.173C1.91529 116.102 1.30329 117.405 1.30329 119.083C1.30329 119.763 1.39396 120.341 1.57529 120.817C1.75663 121.315 2.03996 121.871 2.42529 122.483L2.42529 122.517C2.42529 122.585 2.37996 122.641 2.28929 122.687C2.22129 122.755 2.15329 122.766 2.08529 122.721C0.770626 121.179 0.113292 119.525 0.113292 117.757ZM9.59929 113.133L9.73529 120.851L9.19129 120.851L9.15729 113.167L9.59929 113.133Z" fill="#787676" fill-opacity="0.28"/>
<path d="M0.52135 101.379C0.52135 101.311 0.589351 101.277 0.725351 101.277C0.861351 101.277 0.929351 101.311 0.929351 101.379C0.929351 101.991 0.986016 102.444 1.09935 102.739C1.23535 103.034 1.46202 103.238 1.77935 103.351C2.11935 103.464 2.61802 103.521 3.27535 103.521L8.68135 103.521C10.0187 103.521 11.016 103.283 11.6734 102.807C12.3307 102.331 12.6594 101.594 12.6594 100.597C12.6594 99.8036 12.3874 98.9876 11.8434 98.1489C11.322 97.3329 10.608 96.6303 9.70135 96.0409L10.1093 95.9049C11.4467 96.8569 12.4214 97.7976 13.0334 98.7269C13.668 99.6789 13.9854 100.676 13.9854 101.719C13.9854 102.92 13.6454 103.838 12.9654 104.473C12.2854 105.108 11.254 105.425 9.87135 105.425L3.27535 105.425C2.59535 105.425 2.09668 105.482 1.77935 105.595C1.46202 105.708 1.23535 105.912 1.09935 106.207C0.986016 106.502 0.929351 106.955 0.929351 107.567C0.929351 107.635 0.86135 107.669 0.72535 107.669C0.58935 107.669 0.52135 107.635 0.52135 107.567C0.52135 107.046 0.532684 106.626 0.55535 106.309L0.589351 104.473L0.55535 102.637C0.532684 102.32 0.52135 101.9 0.52135 101.379ZM0.52135 92.6069C0.52135 92.5389 0.589351 92.5049 0.725351 92.5049C0.861351 92.5049 0.929351 92.5389 0.929351 92.6069C0.929351 93.2189 0.986016 93.6723 1.09935 93.9669C1.23535 94.2616 1.46202 94.4543 1.77935 94.5449C2.09668 94.6583 2.59535 94.7149 3.27535 94.7149L8.68135 94.7149C10.0187 94.7149 11.016 94.4769 11.6734 94.0009C12.3307 93.5249 12.6594 92.7996 12.6594 91.8249C12.6594 91.0089 12.3874 90.1929 11.8434 89.3769C11.322 88.5609 10.608 87.8583 9.70135 87.2689L10.1094 87.1329C11.4467 88.0849 12.4214 89.0256 13.0334 89.9549C13.668 90.9069 13.9854 91.8929 13.9854 92.9129C13.9854 94.1143 13.6454 95.0323 12.9654 95.6669C12.2854 96.3243 11.2767 96.6529 9.93935 96.6529L3.27535 96.6529C2.59535 96.6529 2.09668 96.7096 1.77935 96.8229C1.46202 96.9363 1.23535 97.1403 1.09935 97.4349C0.986016 97.7296 0.929351 98.1829 0.929351 98.7949C0.929351 98.8629 0.861351 98.8969 0.725351 98.8969C0.589351 98.8969 0.52135 98.8629 0.52135 98.7949C0.52135 98.2736 0.532684 97.8543 0.555351 97.5369L0.589351 95.7009L0.555351 93.8309C0.532684 93.5363 0.52135 93.1283 0.52135 92.6069ZM0.521351 83.8689C0.521351 83.8009 0.589351 83.7669 0.725351 83.7669C0.861351 83.7669 0.929352 83.8009 0.929352 83.8689C0.929352 84.4809 0.986017 84.9343 1.09935 85.2289C1.23535 85.5236 1.46202 85.7163 1.77935 85.8069C2.09668 85.9203 2.59535 85.9769 3.27535 85.9769L10.0074 85.9769C10.778 85.9769 11.3334 85.8863 11.6734 85.7049C12.0134 85.5236 12.1834 85.2176 12.1834 84.7869C12.1834 84.4243 12.0134 83.8123 11.6734 82.9509L11.6734 82.8829C11.6734 82.7923 11.7187 82.7243 11.8094 82.6789C11.9227 82.6563 12.002 82.6903 12.0474 82.7809L13.9174 86.7249C13.94 86.7703 13.9514 86.8383 13.9514 86.9289C13.9514 87.1329 13.6907 87.3483 13.1694 87.5749C12.648 87.8016 11.9794 87.9149 11.1634 87.9149L3.27535 87.9149C2.59535 87.9149 2.09668 87.9603 1.77935 88.0509C1.46202 88.1643 1.23535 88.3683 1.09935 88.6629C0.986016 88.9576 0.929352 89.4109 0.929351 90.0229C0.929351 90.0909 0.861351 90.1249 0.725351 90.1249C0.589351 90.1249 0.521351 90.0909 0.521351 90.0229C0.521351 89.5016 0.532684 89.0936 0.555351 88.7989L0.589351 86.9629L0.555351 85.0929C0.532684 84.7983 0.521351 84.3903 0.521351 83.8689Z" fill="#787676" fill-opacity="0.28"/>
<path d="M0.0792806 71.8834C0.0792806 70.5687 0.396614 69.4014 1.03128 68.3814C1.68861 67.3841 2.56128 66.6134 3.64928 66.0694C4.75995 65.5254 5.96128 65.2534 7.25328 65.2534C8.72661 65.2534 9.97328 65.6048 10.9933 66.3074C12.0359 67.0328 12.8066 67.9508 13.3053 69.0614C13.8266 70.1948 14.0873 71.3394 14.0873 72.4954C14.0873 73.8327 13.7586 75.0001 13.1013 75.9974C12.4439 76.9947 11.5713 77.7541 10.4833 78.2754C9.41795 78.8194 8.28461 79.0914 7.08328 79.0914C5.67795 79.0914 4.44261 78.7627 3.37728 78.1054C2.33461 77.4481 1.51861 76.5641 0.929281 75.4534C0.362614 74.3654 0.0792805 73.1754 0.0792806 71.8834ZM0.72528 72.8694C0.72528 74.1161 1.16728 75.0794 2.05128 75.7594C2.93528 76.4394 4.29528 76.7794 6.13128 76.7794C7.53661 76.7794 8.79461 76.5414 9.90528 76.0654C11.0159 75.6121 11.8773 74.9774 12.4893 74.1614C13.1239 73.3454 13.4413 72.4161 13.4413 71.3734C13.4413 70.1494 12.9993 69.1974 12.1153 68.5174C11.2313 67.8601 9.96195 67.5314 8.30728 67.5314C6.92461 67.5314 5.65528 67.7581 4.49928 68.2114C3.34328 68.6648 2.42528 69.2994 1.74528 70.1154C1.06528 70.9314 0.72528 71.8494 0.72528 72.8694Z" fill="#787676" fill-opacity="0.28"/>
<path d="M0.52135 55.0978C0.52135 55.0298 0.589351 54.9958 0.725351 54.9958C0.861351 54.9958 0.929351 55.0298 0.929351 55.0978C0.929351 55.7098 0.986016 56.1631 1.09935 56.4578C1.23535 56.7525 1.46202 56.9565 1.77935 57.0698C2.11935 57.1831 2.61802 57.2398 3.27535 57.2398L8.68135 57.2398C10.0187 57.2398 11.016 57.0018 11.6734 56.5258C12.3307 56.0498 12.6594 55.3131 12.6594 54.3158C12.6594 53.5225 12.3874 52.7065 11.8434 51.8678C11.322 51.0518 10.608 50.3491 9.70135 49.7598L10.1093 49.6238C11.4467 50.5758 12.4214 51.5165 13.0334 52.4458C13.668 53.3978 13.9854 54.3951 13.9854 55.4378C13.9854 56.6391 13.6454 57.5571 12.9654 58.1918C12.2854 58.8265 11.254 59.1438 9.87135 59.1438L3.27535 59.1438C2.59535 59.1438 2.09668 59.2005 1.77935 59.3138C1.46202 59.4271 1.23535 59.6311 1.09935 59.9258C0.986016 60.2205 0.929351 60.6738 0.929351 61.2858C0.929351 61.3538 0.86135 61.3878 0.72535 61.3878C0.58935 61.3878 0.52135 61.3538 0.52135 61.2858C0.52135 60.7645 0.532684 60.3451 0.55535 60.0278L0.589351 58.1918L0.55535 56.3558C0.532684 56.0385 0.52135 55.6191 0.52135 55.0978ZM0.52135 46.3258C0.52135 46.2578 0.589351 46.2238 0.725351 46.2238C0.861351 46.2238 0.929351 46.2578 0.929351 46.3258C0.929351 46.9378 0.986016 47.3911 1.09935 47.6858C1.23535 47.9805 1.46202 48.1731 1.77935 48.2638C2.09668 48.3771 2.59535 48.4338 3.27535 48.4338L8.68135 48.4338C10.0187 48.4338 11.016 48.1958 11.6734 47.7198C12.3307 47.2438 12.6594 46.5185 12.6594 45.5438C12.6594 44.7278 12.3874 43.9118 11.8434 43.0958C11.322 42.2798 10.608 41.5771 9.70135 40.9878L10.1094 40.8518C11.4467 41.8038 12.4214 42.7445 13.0334 43.6738C13.668 44.6258 13.9854 45.6118 13.9854 46.6318C13.9854 47.8331 13.6454 48.7511 12.9654 49.3858C12.2854 50.0431 11.2767 50.3718 9.93935 50.3718L3.27535 50.3718C2.59535 50.3718 2.09668 50.4285 1.77935 50.5418C1.46202 50.6551 1.23535 50.8591 1.09935 51.1538C0.986016 51.4485 0.929351 51.9018 0.929351 52.5138C0.929351 52.5818 0.861351 52.6158 0.725351 52.6158C0.589351 52.6158 0.52135 52.5818 0.52135 52.5138C0.52135 51.9925 0.532684 51.5731 0.555351 51.2558L0.589351 49.4198L0.555351 47.5498C0.532684 47.2551 0.52135 46.8471 0.52135 46.3258ZM0.521351 37.5878C0.521351 37.5198 0.589351 37.4858 0.725351 37.4858C0.861351 37.4858 0.929352 37.5198 0.929352 37.5878C0.929352 38.1998 0.986017 38.6531 1.09935 38.9478C1.23535 39.2425 1.46202 39.4351 1.77935 39.5258C2.09668 39.6391 2.59535 39.6958 3.27535 39.6958L10.0074 39.6958C10.778 39.6958 11.3334 39.6051 11.6734 39.4238C12.0134 39.2425 12.1834 38.9365 12.1834 38.5058C12.1834 38.1431 12.0134 37.5311 11.6734 36.6698L11.6734 36.6018C11.6734 36.5111 11.7187 36.4431 11.8094 36.3978C11.9227 36.3751 12.002 36.4091 12.0474 36.4998L13.9174 40.4438C13.94 40.4891 13.9514 40.5571 13.9514 40.6478C13.9514 40.8518 13.6907 41.0671 13.1694 41.2938C12.648 41.5205 11.9794 41.6338 11.1634 41.6338L3.27535 41.6338C2.59535 41.6338 2.09668 41.6791 1.77935 41.7698C1.46202 41.8831 1.23535 42.0871 1.09935 42.3818C0.986016 42.6765 0.929352 43.1298 0.929351 43.7418C0.929351 43.8098 0.861351 43.8438 0.725351 43.8438C0.589351 43.8438 0.521351 43.8098 0.521351 43.7418C0.521351 43.2205 0.532684 42.8125 0.555351 42.5178L0.589351 40.6818L0.555351 38.8118C0.532684 38.5171 0.521351 38.1091 0.521351 37.5878Z" fill="#787676" fill-opacity="0.28"/>
<path d="M10.5513 7.072L10.5513 16.082L9.87132 16.32L9.87132 6.732L10.5513 7.072ZM0.92932 23.902C0.92932 23.9927 0.86132 24.038 0.72532 24.038C0.58932 24.038 0.521319 23.9927 0.521319 23.902C0.521319 23.4713 0.543987 22.8027 0.58932 21.896C0.634654 20.9893 0.657319 20.332 0.657319 19.924C0.657319 19.4253 0.634654 18.7907 0.58932 18.02C0.543987 17.2947 0.52132 16.7393 0.52132 16.354C0.52132 16.2633 0.58932 16.218 0.72532 16.218C0.86132 16.218 0.929321 16.2633 0.929321 16.354C0.929321 17.2153 1.00865 17.8273 1.16732 18.19C1.32599 18.5753 1.60932 18.768 2.01732 18.768C2.35732 18.768 2.83332 18.632 3.44532 18.36L19.3913 10.812L20.4453 11.662L4.83932 5.066C4.06865 4.74867 3.43399 4.59 2.93532 4.59C1.59799 4.59 0.929321 5.70067 0.929321 7.922C0.929321 8.03533 0.86132 8.092 0.72532 8.092C0.58932 8.092 0.52132 8.03533 0.52132 7.922C0.52132 7.514 0.543987 6.92467 0.589321 6.154C0.634654 5.29267 0.65732 4.54467 0.65732 3.91C0.65732 3.32067 0.634654 2.64067 0.589321 1.87C0.543988 1.19 0.52132 0.623332 0.52132 0.169999C0.52132 0.0566657 0.589321 -9.43729e-07 0.725321 -9.37784e-07C0.861321 -9.31839e-07 0.929321 0.0566658 0.929321 0.169999C0.929321 0.804666 1.04265 1.33733 1.26932 1.768C1.51865 2.22133 1.93799 2.64067 2.52732 3.026C3.13932 3.434 4.01199 3.876 5.14532 4.352L22.0773 11.526C22.1453 11.5713 22.1793 11.6507 22.1793 11.764C22.1793 11.8773 22.1453 11.9453 22.0773 11.968L5.17932 19.992C3.50199 20.7627 2.36865 21.42 1.77932 21.964C1.21265 22.508 0.92932 23.154 0.92932 23.902Z" fill="#787676" fill-opacity="0.28"/>
</svg>
